<svg xmlns="http://www.w3.org/2000/svg" fill="none" viewBox="0 0 265 54" height="54" width="265">
<path fill="#FFF8F8" d="M89.6836 29.541H79.5586V40H74.2852V14.4062H90.9492V18.6777H79.5586V25.2871H89.6836V29.541ZM99.0352 40H93.9375V20.9805H99.0352V40ZM93.6387 16.0586C93.6387 15.2969 93.8906 14.6699 94.3945 14.1777C94.9102 13.6855 95.6074 13.4395 96.4863 13.4395C97.3535 13.4395 98.0449 13.6855 98.5605 14.1777C99.0762 14.6699 99.334 15.2969 99.334 16.0586C99.334 16.832 99.0703 17.4648 98.543 17.957C98.0273 18.4492 97.3418 18.6953 96.4863 18.6953C95.6309 18.6953 94.9395 18.4492 94.4121 17.957C93.8965 17.4648 93.6387 16.832 93.6387 16.0586ZM107.912 20.9805L108.07 23.1777C109.43 21.4785 111.252 20.6289 113.537 20.6289C115.553 20.6289 117.053 21.2207 118.037 22.4043C119.021 23.5879 119.525 25.3574 119.549 27.7129V40H114.469V27.8359C114.469 26.7578 114.234 25.9785 113.766 25.498C113.297 25.0059 112.518 24.7598 111.428 24.7598C109.998 24.7598 108.926 25.3691 108.211 26.5879V40H103.131V20.9805H107.912ZM134.438 40C134.203 39.543 134.033 38.9746 133.928 38.2949C132.697 39.666 131.098 40.3516 129.129 40.3516C127.266 40.3516 125.719 39.8125 124.488 38.7344C123.27 37.6562 122.66 36.2969 122.66 34.6562C122.66 32.6406 123.404 31.0938 124.893 30.0156C126.393 28.9375 128.555 28.3926 131.379 28.3809H133.717V27.291C133.717 26.4121 133.488 25.709 133.031 25.1816C132.586 24.6543 131.877 24.3906 130.904 24.3906C130.049 24.3906 129.375 24.5957 128.883 25.0059C128.402 25.416 128.162 25.9785 128.162 26.6934H123.082C123.082 25.5918 123.422 24.5723 124.102 23.6348C124.781 22.6973 125.742 21.9648 126.984 21.4375C128.227 20.8984 129.621 20.6289 131.168 20.6289C133.512 20.6289 135.369 21.2207 136.74 22.4043C138.123 23.5762 138.814 25.2285 138.814 27.3613V35.6055C138.826 37.4102 139.078 38.7754 139.57 39.7012V40H134.438ZM130.236 36.4668C130.986 36.4668 131.678 36.3027 132.311 35.9746C132.943 35.6348 133.412 35.1836 133.717 34.6211V31.3516H131.818C129.275 31.3516 127.922 32.2305 127.758 33.9883L127.74 34.2871C127.74 34.9199 127.963 35.4414 128.408 35.8516C128.854 36.2617 129.463 36.4668 130.236 36.4668ZM147.393 20.9805L147.551 23.1777C148.91 21.4785 150.732 20.6289 153.018 20.6289C155.033 20.6289 156.533 21.2207 157.518 22.4043C158.502 23.5879 159.006 25.3574 159.029 27.7129V40H153.949V27.8359C153.949 26.7578 153.715 25.9785 153.246 25.498C152.777 25.0059 151.998 24.7598 150.908 24.7598C149.479 24.7598 148.406 25.3691 147.691 26.5879V40H142.611V20.9805H147.393ZM170.807 36.2559C171.744 36.2559 172.506 35.998 173.092 35.4824C173.678 34.9668 173.982 34.2812 174.006 33.4258H178.77C178.758 34.7148 178.406 35.8984 177.715 36.9766C177.023 38.043 176.074 38.875 174.867 39.4727C173.672 40.0586 172.348 40.3516 170.895 40.3516C168.176 40.3516 166.031 39.4902 164.461 37.7676C162.891 36.0332 162.105 33.6426 162.105 30.5957V30.2617C162.105 27.332 162.885 24.9941 164.443 23.248C166.002 21.502 168.141 20.6289 170.859 20.6289C173.238 20.6289 175.143 21.3086 176.572 22.668C178.014 24.0156 178.746 25.8145 178.77 28.0645H174.006C173.982 27.0801 173.678 26.2832 173.092 25.6738C172.506 25.0527 171.732 24.7422 170.771 24.7422C169.588 24.7422 168.691 25.1758 168.082 26.043C167.484 26.8984 167.186 28.293 167.186 30.2266V30.7539C167.186 32.7109 167.484 34.1172 168.082 34.9727C168.68 35.8281 169.588 36.2559 170.807 36.2559ZM190.424 40.3516C187.635 40.3516 185.361 39.4961 183.604 37.7852C181.857 36.0742 180.984 33.7949 180.984 30.9473V30.4551C180.984 28.5449 181.354 26.8398 182.092 25.3398C182.83 23.8281 183.873 22.668 185.221 21.8594C186.58 21.0391 188.127 20.6289 189.861 20.6289C192.463 20.6289 194.508 21.4492 195.996 23.0898C197.496 24.7305 198.246 27.0566 198.246 30.0684V32.1426H186.135C186.299 33.3848 186.791 34.3809 187.611 35.1309C188.443 35.8809 189.492 36.2559 190.758 36.2559C192.715 36.2559 194.244 35.5469 195.346 34.1289L197.842 36.9238C197.08 38.002 196.049 38.8457 194.748 39.4551C193.447 40.0527 192.006 40.3516 190.424 40.3516ZM189.844 24.7422C188.836 24.7422 188.016 25.082 187.383 25.7617C186.762 26.4414 186.363 27.4141 186.188 28.6797H193.254V28.2754C193.23 27.1504 192.926 26.2832 192.34 25.6738C191.754 25.0527 190.922 24.7422 189.844 24.7422ZM216.053 40H210.779V14.4062H216.053V40ZM241.98 27.7832C241.98 30.3027 241.535 32.5117 240.645 34.4102C239.754 36.3086 238.477 37.7734 236.812 38.8047C235.16 39.8359 233.262 40.3516 231.117 40.3516C228.996 40.3516 227.104 39.8418 225.439 38.8223C223.775 37.8027 222.486 36.3496 221.572 34.4629C220.658 32.5645 220.195 30.3848 220.184 27.9238V26.6582C220.184 24.1387 220.635 21.9238 221.537 20.0137C222.451 18.0918 223.734 16.6211 225.387 15.6016C227.051 14.5703 228.949 14.0547 231.082 14.0547C233.215 14.0547 235.107 14.5703 236.76 15.6016C238.424 16.6211 239.707 18.0918 240.609 20.0137C241.523 21.9238 241.98 24.1328 241.98 26.6406V27.7832ZM236.637 26.623C236.637 23.9395 236.156 21.9004 235.195 20.5059C234.234 19.1113 232.863 18.4141 231.082 18.4141C229.312 18.4141 227.947 19.1055 226.986 20.4883C226.025 21.8594 225.539 23.875 225.527 26.5352V27.7832C225.527 30.3965 226.008 32.4238 226.969 33.8652C227.93 35.3066 229.312 36.0273 231.117 36.0273C232.887 36.0273 234.246 35.3359 235.195 33.9531C236.145 32.5586 236.625 30.5312 236.637 27.8711V26.623Z"></path>
<circle fill="#D291BC" r="27" cy="27" cx="31"></circle>
<path fill="#FFF8F8" d="M23.7891 29.0273H17.0391V36H13.5234V18.9375H24.6328V21.7852H17.0391V26.1914H23.7891V29.0273ZM30.4102 36H26.8945V18.9375H30.4102V36ZM47.6953 27.8555C47.6953 29.5352 47.3984 31.0078 46.8047 32.2734C46.2109 33.5391 45.3594 34.5156 44.25 35.2031C43.1484 35.8906 41.8828 36.2344 40.4531 36.2344C39.0391 36.2344 37.7773 35.8945 36.668 35.2148C35.5586 34.5352 34.6992 33.5664 34.0898 32.3086C33.4805 31.043 33.1719 29.5898 33.1641 27.9492V27.1055C33.1641 25.4258 33.4648 23.9492 34.0664 22.6758C34.6758 21.3945 35.5312 20.4141 36.6328 19.7344C37.7422 19.0469 39.0078 18.7031 40.4297 18.7031C41.8516 18.7031 43.1133 19.0469 44.2148 19.7344C45.3242 20.4141 46.1797 21.3945 46.7812 22.6758C47.3906 23.9492 47.6953 25.4219 47.6953 27.0938V27.8555ZM44.1328 27.082C44.1328 25.293 43.8125 23.9336 43.1719 23.0039C42.5312 22.0742 41.6172 21.6094 40.4297 21.6094C39.25 21.6094 38.3398 22.0703 37.6992 22.9922C37.0586 23.9062 36.7344 25.25 36.7266 27.0234V27.8555C36.7266 29.5977 37.0469 30.9492 37.6875 31.9102C38.3281 32.8711 39.25 33.3516 40.4531 33.3516C41.6328 33.3516 42.5391 32.8906 43.1719 31.9688C43.8047 31.0391 44.125 29.6875 44.1328 27.9141V27.082Z"></path>
</svg>
